HIERARCHY
ROOT Hips
{
	OFFSET 0.000000 0.000000 0.000000
	CHANNELS 6 Xposition Yposition Zposition Xrotation Yrotation Zrotation
	JOINT LeftUpLeg_virtual
	{
		OFFSET 0.000000 0.000000 0.000000
		CHANNELS 3 Xrotation Yrotation Zrotation
		JOINT LeftUpLeg
		{
			OFFSET 11.394100 -6.187798 -0.413800
			CHANNELS 3 Xrotation Yrotation Zrotation
			JOINT LeftLeg
			{
				OFFSET 0.430247 -32.302673 3.732800
				CHANNELS 3 Xrotation Yrotation Zrotation
				JOINT LeftFoot
				{
					OFFSET -0.430247 -48.264931 -6.423300
					CHANNELS 3 Xrotation Yrotation Zrotation
					JOINT LeftToeBase
					{
						OFFSET 4.230900 -16.068199 23.438400
						CHANNELS 3 Xrotation Yrotation Zrotation
						JOINT LeftToe_End
						{
							OFFSET 4.510700 0.695400 19.974600
							CHANNELS 3 Xrotation Yrotation Zrotation
							End Site
							{
								OFFSET 0 0 0
							}
						}
					}
				}
			}
		}
	}
	JOINT RightUpLeg_virtual
	{
		OFFSET 0.000000 0.000000 0.000000
		CHANNELS 3 Xrotation Yrotation Zrotation
		JOINT RightUpLeg
		{
			OFFSET -11.333700 -6.187798 -0.413800
			CHANNELS 3 Xrotation Yrotation Zrotation
			JOINT RightLeg
			{
				OFFSET -0.430392 -32.302628 3.733000
				CHANNELS 3 Xrotation Yrotation Zrotation
				JOINT RightFoot
				{
					OFFSET 0.430392 -48.264973 -6.423500
					CHANNELS 3 Xrotation Yrotation Zrotation
					JOINT RightToeBase
					{
						OFFSET -4.230900 -16.068199 23.438400
						CHANNELS 3 Xrotation Yrotation Zrotation
						JOINT RightToe_End
						{
							OFFSET -4.510700 0.695400 19.974600
							CHANNELS 3 Xrotation Yrotation Zrotation
							End Site
							{
								OFFSET 0 0 0
							}
						}
					}
				}
			}
		}
	}
	JOINT Spine_virtual
	{
		OFFSET 0.000000 0.000000 0.000000
		CHANNELS 3 Xrotation Yrotation Zrotation
		JOINT Spine
		{
			OFFSET -0.002400 12.777504 0.315300
			CHANNELS 3 Xrotation Yrotation Zrotation
			JOINT Spine1
			{
				OFFSET -0.002067 5.816869 0.032633
				CHANNELS 3 Xrotation Yrotation Zrotation
				JOINT Spine1_split
				{
					OFFSET -0.002067 5.816869 0.032633
					CHANNELS 3 Xrotation Yrotation Zrotation
					JOINT Spine2
					{
						OFFSET -0.002067 5.816869 0.032633
						CHANNELS 3 Xrotation Yrotation Zrotation
						JOINT Neck_virtual
						{
							OFFSET 0.000000 0.000000 0.000000
							CHANNELS 3 Xrotation Yrotation Zrotation
							JOINT Neck
							{
								OFFSET -0.003700 21.199493 -0.826900
								CHANNELS 3 Xrotation Yrotation Zrotation
								JOINT Head
								{
									OFFSET 0.000000 20.442200 4.834800
									CHANNELS 3 Xrotation Yrotation Zrotation
									JOINT HeadTop_End
									{
										OFFSET 0.000000 34.668396 4.968400
										CHANNELS 3 Xrotation Yrotation Zrotation
										End Site
										{
											OFFSET 0 0 0
										}
									}
								}
							}
						}
						JOINT LeftShoulder_virtual
						{
							OFFSET 0.000000 0.000000 0.000000
							CHANNELS 3 Xrotation Yrotation Zrotation
							JOINT LeftShoulder
							{
								OFFSET 3.288150 8.794197 -1.372250
								CHANNELS 3 Xrotation Yrotation Zrotation
								JOINT LeftShoulder_split
								{
									OFFSET 3.288150 8.794197 -1.372250
									CHANNELS 3 Xrotation Yrotation Zrotation
									JOINT LeftArm
									{
										OFFSET 11.953299 -2.279007 -0.146200
										CHANNELS 3 Xrotation Yrotation Zrotation
										JOINT LeftForeArm
										{
											OFFSET 18.448900 0.000000 0.000000
											CHANNELS 3 Xrotation Yrotation Zrotation
											JOINT LeftHand
											{
												OFFSET 29.527798 0.000000 0.000000
												CHANNELS 3 Xrotation Yrotation Zrotation
												End Site
												{
													OFFSET 0 0 0
												}
											}
										}
									}
								}
							}
						}
						JOINT RightShoulder_virtual
						{
							OFFSET 0.000000 0.000000 0.000000
							CHANNELS 3 Xrotation Yrotation Zrotation
							JOINT RightShoulder
							{
								OFFSET -3.249400 8.794197 -1.372250
								CHANNELS 3 Xrotation Yrotation Zrotation
								JOINT RightShoulder_split
								{
									OFFSET -3.249400 8.794197 -1.372250
									CHANNELS 3 Xrotation Yrotation Zrotation
									JOINT RightArm
									{
										OFFSET -11.953299 -2.279007 -0.146200
										CHANNELS 3 Xrotation Yrotation Zrotation
										JOINT RightForeArm
										{
											OFFSET -18.448900 0.000000 0.000000
											CHANNELS 3 Xrotation Yrotation Zrotation
											JOINT RightHand
											{
												OFFSET -29.527802 0.000000 0.000000
												CHANNELS 3 Xrotation Yrotation Zrotation
												End Site
												{
													OFFSET 0 0 0
												}
											}
										}
									}
								}
							}
						}
					}
				}
			}
		}
	}
}
MOTION
Frames: 5
Frame Time: 0.03333333
0.276462 102.852936 -9.747650 0.000000 0.000000 0.000000 -3.278063 -1.697986 -2.247289 -12.467644 30.421249 13.987379 14.452161 3.208252 0.508856 -5.975373 -1.118446 -7.084496 1.290210 -4.344284 -1.041770 0.000000 0.000000 0.000000 -3.047708 1.283687 -2.278682 -13.980912 -3.716202 -8.337375 9.651582 -12.378943 -1.382302 7.304598 -1.859834 16.011570 -3.769618 7.013175 -17.662681 0.000000 0.000000 0.000000 -7.692828 2.778384 -2.973752 12.719489 5.917929 -3.014057 -3.864349 -0.340699 -3.925059 0.204253 -1.040210 0.276781 0.000000 0.000000 0.000000 -12.029739 5.922475 -2.921887 11.795859 62.410013 -23.781122 -87.675594 -18.618730 -130.829951 0.000000 0.000000 0.000000 -16.354439 1.533157 -3.393110 2.592837 -13.109638 -14.822281 7.515833 -3.010710 -4.120860 -14.406889 4.904096 -60.502027 2.185979 9.249218 2.861629 0.000000 0.000000 0.000000 -22.175924 1.208707 -0.595113 7.527099 -11.325022 32.144588 -1.551168 -6.891922 -8.267208 -2.307897 55.349220 79.368608 -48.982517 -42.861705 -25.424326 0.000000 0.000000 0.000000 
0.389620 102.744934 -9.786442 0.000000 0.000000 0.000000 -3.464800 -1.809113 -2.261078 -12.899920 30.343546 14.183831 14.657716 3.235443 0.429022 -5.714494 -1.252133 -7.314162 1.297129 -4.319414 -0.912833 0.000000 0.000000 0.000000 -3.123368 1.396484 -2.334788 -13.994702 -3.805218 -8.265250 9.547793 -12.524821 -1.370130 7.784871 -2.034036 16.026644 -3.781550 7.122346 -17.581262 0.000000 0.000000 0.000000 -7.741564 2.772203 -2.992190 12.795676 5.913470 -3.079841 -3.889511 -0.333379 -3.995910 0.230655 -0.957123 0.261778 0.000000 0.000000 0.000000 -12.182581 5.894930 -2.912229 11.274506 62.336473 -23.278950 -87.693106 -18.842842 -130.890781 0.000000 0.000000 0.000000 -16.471841 1.578428 -3.438097 2.560696 -12.723698 -15.036240 7.368317 -3.155603 -4.038519 -14.339951 4.756385 -60.195509 2.117732 9.292226 2.695529 0.000000 0.000000 0.000000 -22.210284 1.252690 -0.631995 7.369260 -11.302366 32.147737 -1.324570 -6.096582 -8.180213 -2.433443 55.398230 79.903610 -48.803269 -42.549193 -25.137647 0.000000 0.000000 0.000000 
0.528031 102.579521 -9.879433 0.000000 0.000000 0.000000 -3.504622 -2.037557 -2.428203 -13.835474 30.363606 14.636279 15.304987 3.416612 0.340328 -5.645259 -1.359888 -7.074493 1.264470 -4.236185 -0.960241 0.000000 0.000000 0.000000 -3.172160 1.796210 -2.491068 -14.016687 -3.942159 -8.048213 9.512574 -12.649484 -1.366378 8.310817 -2.398954 15.993871 -4.196720 7.251853 -17.264703 0.000000 0.000000 0.000000 -7.906217 2.981431 -3.090160 12.792590 5.911686 -3.153203 -3.897601 -0.245477 -4.038811 0.205777 -0.902784 0.250801 0.000000 0.000000 0.000000 -12.328433 5.929953 -2.874476 10.791436 62.223706 -22.678065 -87.802027 -19.259778 -130.599159 0.000000 0.000000 0.000000 -16.544917 1.696546 -3.428227 2.565180 -12.406466 -15.122175 7.334219 -3.435334 -4.088615 -14.390737 4.663015 -59.529210 2.212347 9.122548 2.474245 0.000000 0.000000 0.000000 -22.177588 1.369440 -0.640374 7.088178 -11.425026 32.147375 -1.015836 -5.573595 -8.090403 -2.383297 55.725372 80.212499 -48.522965 -42.239625 -24.733449 0.000000 0.000000 0.000000 
0.685288 102.449348 -10.144341 0.000000 0.000000 0.000000 -3.337919 -2.367684 -2.702537 -15.070802 30.407784 15.161891 16.307422 3.687015 0.272778 -5.741605 -1.457643 -6.498156 1.450527 -4.097048 -1.263678 0.000000 0.000000 0.000000 -3.124819 2.412106 -2.695279 -14.001680 -4.061760 -7.705032 9.234632 -12.714323 -1.466898 8.424483 -3.003627 15.627273 -4.452329 7.339685 -16.834722 0.000000 0.000000 0.000000 -7.961136 3.275588 -3.228095 12.671656 5.924481 -3.251690 -3.881439 -0.088397 -4.033602 0.136509 -0.865009 0.250371 0.000000 0.000000 0.000000 -12.430038 6.027229 -2.808154 10.346419 62.085074 -22.006916 -87.982023 -19.841715 -129.973541 0.000000 0.000000 0.000000 -16.541383 1.877926 -3.368686 2.589356 -12.232891 -15.170523 7.438731 -3.846394 -4.149821 -14.614709 4.469393 -58.658395 2.451514 8.808099 2.191172 0.000000 0.000000 0.000000 -22.061125 1.553464 -0.619022 6.722810 -11.692559 32.138110 -0.754716 -5.486086 -7.814331 -2.124290 56.173631 80.162112 -48.141540 -42.002204 -24.223010 0.000000 0.000000 0.000000 
0.906554 102.419052 -10.590534 0.000000 0.000000 0.000000 -2.908175 -2.586152 -2.992441 -16.410571 30.415075 15.605017 17.423859 3.901930 0.261167 -5.817945 -1.608344 -5.880158 1.851282 -3.915780 -1.776099 0.000000 0.000000 0.000000 -2.936946 2.999750 -2.901252 -14.091388 -4.125684 -7.315532 8.733321 -12.662975 -1.680339 8.220983 -3.705708 14.836658 -4.133403 7.385236 -16.481578 0.000000 0.000000 0.000000 -7.772211 3.510168 -3.336021 12.452057 5.959234 -3.410499 -3.843670 0.119357 -3.981499 0.091090 -0.829182 0.246516 0.000000 0.000000 0.000000 -12.456291 6.170410 -2.720776 9.845408 61.940506 -21.239201 -88.214748 -20.521512 -129.043802 0.000000 0.000000 0.000000 -16.456914 2.105375 -3.286285 2.621038 -12.190313 -15.250767 7.581004 -4.218713 -4.084907 -14.982701 3.989993 -57.719258 2.813650 8.368675 1.838444 0.000000 0.000000 0.000000 -21.857471 1.787956 -0.574610 6.317312 -12.067192 32.122219 -0.634612 -5.772500 -7.299076 -1.563586 56.558922 79.666753 -47.645784 -41.909494 -23.624388 0.000000 0.000000 0.000000 
